%TF.GenerationSoftware,KiCad,Pcbnew,(6.0.10)*%
%TF.CreationDate,2023-07-13T12:22:52-04:00*%
%TF.ProjectId,ArduinoUnoR4Shield,41726475-696e-46f5-956e-6f5234536869,1.0*%
%TF.SameCoordinates,Original*%
%TF.FileFunction,Copper,L1,Top*%
%TF.FilePolarity,Positive*%
%FSLAX46Y46*%
G04 Gerber Fmt 4.6, Leading zero omitted, Abs format (unit mm)*
G04 Created by KiCad (PCBNEW (6.0.10)) date 2023-07-13 12:22:52*
%MOMM*%
%LPD*%
G01*
G04 APERTURE LIST*
%TA.AperFunction,ComponentPad*%
%ADD10O,1.700000X1.700000*%
%TD*%
%TA.AperFunction,ComponentPad*%
%ADD11C,1.422000*%
%TD*%
%TA.AperFunction,Conductor*%
%ADD12C,0.750000*%
%TD*%
%TA.AperFunction,Conductor*%
%ADD13C,1.700000*%
%TD*%
%TA.AperFunction,Conductor*%
%ADD14C,1.000000*%
%TD*%
G04 APERTURE END LIST*
D10*
%TO.P,REF\u002A\u002A,1*%
%TO.N,N/C*%
X109220000Y-90170000D03*
%TO.P,REF\u002A\u002A,2*%
X111760000Y-90170000D03*
%TO.P,REF\u002A\u002A,3*%
X114300000Y-90170000D03*
%TO.P,REF\u002A\u002A,4*%
X116840000Y-90170000D03*
%TO.P,REF\u002A\u002A,5*%
X119380000Y-90170000D03*
%TO.P,REF\u002A\u002A,6*%
X121920000Y-90170000D03*
%TO.P,REF\u002A\u002A,7*%
X124460000Y-90170000D03*
%TO.P,REF\u002A\u002A,8*%
X127000000Y-90170000D03*
%TO.P,REF\u002A\u002A,9*%
X129540000Y-90170000D03*
%TO.P,REF\u002A\u002A,10*%
X132080000Y-90170000D03*
%TO.P,REF\u002A\u002A,11*%
X134620000Y-90170000D03*
%TO.P,REF\u002A\u002A,12*%
X137160000Y-90170000D03*
%TO.P,REF\u002A\u002A,13*%
X139700000Y-90170000D03*
%TO.P,REF\u002A\u002A,14*%
X142240000Y-90170000D03*
%TO.P,REF\u002A\u002A,15*%
X144780000Y-90170000D03*
%TO.P,REF\u002A\u002A,16*%
X147320000Y-90170000D03*
%TO.P,REF\u002A\u002A,17*%
X149860000Y-90170000D03*
%TO.P,REF\u002A\u002A,18*%
X152400000Y-90170000D03*
%TO.P,REF\u002A\u002A,19*%
X154940000Y-90170000D03*
%TO.P,REF\u002A\u002A,20*%
X157480000Y-90170000D03*
%TO.P,REF\u002A\u002A,21*%
X160020000Y-90170000D03*
%TO.P,REF\u002A\u002A,22*%
X162560000Y-90170000D03*
%TO.P,REF\u002A\u002A,23*%
X165100000Y-90170000D03*
%TO.P,REF\u002A\u002A,24*%
X167640000Y-90170000D03*
%TD*%
%TO.P,REF\u002A\u002A,1*%
%TO.N,N/C*%
X109220000Y-97790000D03*
%TO.P,REF\u002A\u002A,2*%
X111760000Y-97790000D03*
%TO.P,REF\u002A\u002A,3*%
X114300000Y-97790000D03*
%TO.P,REF\u002A\u002A,4*%
X116840000Y-97790000D03*
%TO.P,REF\u002A\u002A,5*%
X119380000Y-97790000D03*
%TO.P,REF\u002A\u002A,6*%
X121920000Y-97790000D03*
%TO.P,REF\u002A\u002A,7*%
X124460000Y-97790000D03*
%TO.P,REF\u002A\u002A,8*%
X127000000Y-97790000D03*
%TO.P,REF\u002A\u002A,9*%
X129540000Y-97790000D03*
%TO.P,REF\u002A\u002A,10*%
X132080000Y-97790000D03*
%TO.P,REF\u002A\u002A,11*%
X134620000Y-97790000D03*
%TO.P,REF\u002A\u002A,12*%
X137160000Y-97790000D03*
%TO.P,REF\u002A\u002A,13*%
X139700000Y-97790000D03*
%TO.P,REF\u002A\u002A,14*%
X142240000Y-97790000D03*
%TO.P,REF\u002A\u002A,15*%
X144780000Y-97790000D03*
%TO.P,REF\u002A\u002A,16*%
X147320000Y-97790000D03*
%TO.P,REF\u002A\u002A,17*%
X149860000Y-97790000D03*
%TO.P,REF\u002A\u002A,18*%
X152400000Y-97790000D03*
%TO.P,REF\u002A\u002A,19*%
X154940000Y-97790000D03*
%TO.P,REF\u002A\u002A,20*%
X157480000Y-97790000D03*
%TO.P,REF\u002A\u002A,21*%
X160020000Y-97790000D03*
%TO.P,REF\u002A\u002A,22*%
X162560000Y-97790000D03*
%TO.P,REF\u002A\u002A,23*%
X165100000Y-97790000D03*
%TO.P,REF\u002A\u002A,24*%
X167640000Y-97790000D03*
%TO.P,REF\u002A\u002A,25*%
X170180000Y-97790000D03*
%TO.P,REF\u002A\u002A,26*%
X172720000Y-97790000D03*
%TD*%
D11*
%TO.P,U1,1,OFF*%
%TO.N,unconnected-(U1-Pad1)*%
X124474990Y-116840010D03*
%TO.P,U1,2,GND*%
%TO.N,unconnected-(U1-Pad2)*%
X127014990Y-116840010D03*
%TO.P,U1,3,VRTC*%
%TO.N,unconnected-(U1-Pad3)*%
X129554990Y-116840010D03*
%TD*%
D10*
%TO.P,REF\u002A\u002A,1*%
%TO.N,N/C*%
X109220000Y-77470000D03*
%TO.P,REF\u002A\u002A,2*%
X111760000Y-77470000D03*
%TO.P,REF\u002A\u002A,3*%
X114300000Y-77470000D03*
%TO.P,REF\u002A\u002A,4*%
X116840000Y-77470000D03*
%TO.P,REF\u002A\u002A,5*%
X119380000Y-77470000D03*
%TO.P,REF\u002A\u002A,10*%
X132080000Y-77470000D03*
%TO.P,REF\u002A\u002A,11*%
X134620000Y-77470000D03*
%TO.P,REF\u002A\u002A,12*%
X137160000Y-77470000D03*
%TO.P,REF\u002A\u002A,13*%
X139700000Y-77470000D03*
%TO.P,REF\u002A\u002A,14*%
X142240000Y-77470000D03*
%TO.P,REF\u002A\u002A,15*%
X144780000Y-77470000D03*
%TO.P,REF\u002A\u002A,16*%
X147320000Y-77470000D03*
%TO.P,REF\u002A\u002A,17*%
X149860000Y-77470000D03*
%TO.P,REF\u002A\u002A,18*%
X152400000Y-77470000D03*
%TO.P,REF\u002A\u002A,19*%
X154940000Y-77470000D03*
%TO.P,REF\u002A\u002A,20*%
X157480000Y-77470000D03*
%TO.P,REF\u002A\u002A,21*%
X160020000Y-77470000D03*
%TO.P,REF\u002A\u002A,22*%
X162560000Y-77470000D03*
%TO.P,REF\u002A\u002A,23*%
X165100000Y-77470000D03*
%TO.P,REF\u002A\u002A,24*%
X167640000Y-77470000D03*
%TO.P,REF\u002A\u002A,25*%
X170180000Y-77470000D03*
%TD*%
%TO.P,REF\u002A\u002A,1*%
%TO.N,N/C*%
X109220000Y-85090000D03*
%TO.P,REF\u002A\u002A,2*%
X111760000Y-85090000D03*
%TO.P,REF\u002A\u002A,3*%
X114300000Y-85090000D03*
%TO.P,REF\u002A\u002A,4*%
X116840000Y-85090000D03*
%TO.P,REF\u002A\u002A,5*%
X119380000Y-85090000D03*
%TO.P,REF\u002A\u002A,6*%
X121920000Y-85090000D03*
%TO.P,REF\u002A\u002A,7*%
X124460000Y-85090000D03*
%TO.P,REF\u002A\u002A,8*%
X127000000Y-85090000D03*
%TO.P,REF\u002A\u002A,9*%
X129540000Y-85090000D03*
%TO.P,REF\u002A\u002A,10*%
X132080000Y-85090000D03*
%TO.P,REF\u002A\u002A,11*%
X134620000Y-85090000D03*
%TO.P,REF\u002A\u002A,12*%
X137160000Y-85090000D03*
%TO.P,REF\u002A\u002A,13*%
X139700000Y-85090000D03*
%TO.P,REF\u002A\u002A,14*%
X142240000Y-85090000D03*
%TO.P,REF\u002A\u002A,15*%
X144780000Y-85090000D03*
%TO.P,REF\u002A\u002A,16*%
X147320000Y-85090000D03*
%TO.P,REF\u002A\u002A,17*%
X149860000Y-85090000D03*
%TO.P,REF\u002A\u002A,18*%
X152400000Y-85090000D03*
%TO.P,REF\u002A\u002A,19*%
X154940000Y-85090000D03*
%TO.P,REF\u002A\u002A,20*%
X157480000Y-85090000D03*
%TO.P,REF\u002A\u002A,21*%
X160020000Y-85090000D03*
%TO.P,REF\u002A\u002A,22*%
X162560000Y-85090000D03*
%TO.P,REF\u002A\u002A,23*%
X165100000Y-85090000D03*
%TO.P,REF\u002A\u002A,24*%
X167640000Y-85090000D03*
%TD*%
D11*
%TO.P,U5,1,CIPO*%
%TO.N,unconnected-(U5-Pad1)*%
X170301990Y-88915010D03*
%TO.P,U5,2,+5V*%
%TO.N,unconnected-(U5-Pad2)*%
X172841990Y-88915010D03*
%TO.P,U5,3,SCK*%
%TO.N,unconnected-(U5-Pad3)*%
X170301990Y-91455010D03*
%TO.P,U5,4,COPI*%
%TO.N,unconnected-(U5-Pad4)*%
X172841990Y-91455010D03*
%TO.P,U5,5,RESET*%
%TO.N,unconnected-(U5-Pad5)*%
X170301990Y-93995010D03*
%TO.P,U5,6,GND*%
%TO.N,unconnected-(U5-Pad6)*%
X172841990Y-93995010D03*
%TD*%
D10*
%TO.P,REF\u002A\u002A,1*%
%TO.N,N/C*%
X109220000Y-102870000D03*
%TO.P,REF\u002A\u002A,2*%
X111760000Y-102870000D03*
%TO.P,REF\u002A\u002A,3*%
X114300000Y-102870000D03*
%TO.P,REF\u002A\u002A,4*%
X116840000Y-102870000D03*
%TO.P,REF\u002A\u002A,5*%
X119380000Y-102870000D03*
%TO.P,REF\u002A\u002A,6*%
X121920000Y-102870000D03*
%TO.P,REF\u002A\u002A,7*%
X124460000Y-102870000D03*
%TO.P,REF\u002A\u002A,8*%
X127000000Y-102870000D03*
%TO.P,REF\u002A\u002A,9*%
X129540000Y-102870000D03*
%TO.P,REF\u002A\u002A,10*%
X132080000Y-102870000D03*
%TO.P,REF\u002A\u002A,11*%
X134620000Y-102870000D03*
%TO.P,REF\u002A\u002A,12*%
X137160000Y-102870000D03*
%TO.P,REF\u002A\u002A,13*%
X139700000Y-102870000D03*
%TO.P,REF\u002A\u002A,14*%
X142240000Y-102870000D03*
%TO.P,REF\u002A\u002A,15*%
X144780000Y-102870000D03*
%TO.P,REF\u002A\u002A,16*%
X147320000Y-102870000D03*
%TO.P,REF\u002A\u002A,17*%
X149860000Y-102870000D03*
%TO.P,REF\u002A\u002A,18*%
X152400000Y-102870000D03*
%TO.P,REF\u002A\u002A,19*%
X154940000Y-102870000D03*
%TO.P,REF\u002A\u002A,20*%
X157480000Y-102870000D03*
%TO.P,REF\u002A\u002A,21*%
X160020000Y-102870000D03*
%TO.P,REF\u002A\u002A,22*%
X162560000Y-102870000D03*
%TO.P,REF\u002A\u002A,23*%
X165100000Y-102870000D03*
%TO.P,REF\u002A\u002A,24*%
X167640000Y-102870000D03*
%TO.P,REF\u002A\u002A,25*%
X170180000Y-102870000D03*
%TO.P,REF\u002A\u002A,26*%
X172720000Y-102870000D03*
%TD*%
%TO.P,REF\u002A\u002A,1*%
%TO.N,N/C*%
X109220000Y-113030000D03*
%TO.P,REF\u002A\u002A,2*%
X111760000Y-113030000D03*
%TO.P,REF\u002A\u002A,3*%
X114300000Y-113030000D03*
%TO.P,REF\u002A\u002A,4*%
X116840000Y-113030000D03*
%TO.P,REF\u002A\u002A,5*%
X119380000Y-113030000D03*
%TO.P,REF\u002A\u002A,6*%
X121920000Y-113030000D03*
%TD*%
%TO.P,REF\u002A\u002A,1*%
%TO.N,N/C*%
X109220000Y-115570000D03*
%TO.P,REF\u002A\u002A,2*%
X111760000Y-115570000D03*
%TO.P,REF\u002A\u002A,3*%
X114300000Y-115570000D03*
%TO.P,REF\u002A\u002A,4*%
X116840000Y-115570000D03*
%TD*%
%TO.P,REF\u002A\u002A,1*%
%TO.N,N/C*%
X109220000Y-100330000D03*
%TO.P,REF\u002A\u002A,2*%
X111760000Y-100330000D03*
%TO.P,REF\u002A\u002A,3*%
X114300000Y-100330000D03*
%TO.P,REF\u002A\u002A,4*%
X116840000Y-100330000D03*
%TO.P,REF\u002A\u002A,5*%
X119380000Y-100330000D03*
%TO.P,REF\u002A\u002A,6*%
X121920000Y-100330000D03*
%TO.P,REF\u002A\u002A,7*%
X124460000Y-100330000D03*
%TO.P,REF\u002A\u002A,8*%
X127000000Y-100330000D03*
%TO.P,REF\u002A\u002A,9*%
X129540000Y-100330000D03*
%TO.P,REF\u002A\u002A,10*%
X132080000Y-100330000D03*
%TO.P,REF\u002A\u002A,11*%
X134620000Y-100330000D03*
%TO.P,REF\u002A\u002A,12*%
X137160000Y-100330000D03*
%TO.P,REF\u002A\u002A,13*%
X139700000Y-100330000D03*
%TO.P,REF\u002A\u002A,14*%
X142240000Y-100330000D03*
%TO.P,REF\u002A\u002A,15*%
X144780000Y-100330000D03*
%TO.P,REF\u002A\u002A,16*%
X147320000Y-100330000D03*
%TO.P,REF\u002A\u002A,17*%
X149860000Y-100330000D03*
%TO.P,REF\u002A\u002A,18*%
X152400000Y-100330000D03*
%TO.P,REF\u002A\u002A,19*%
X154940000Y-100330000D03*
%TO.P,REF\u002A\u002A,20*%
X157480000Y-100330000D03*
%TO.P,REF\u002A\u002A,21*%
X160020000Y-100330000D03*
%TO.P,REF\u002A\u002A,22*%
X162560000Y-100330000D03*
%TO.P,REF\u002A\u002A,23*%
X165100000Y-100330000D03*
%TO.P,REF\u002A\u002A,24*%
X167640000Y-100330000D03*
%TO.P,REF\u002A\u002A,25*%
X170180000Y-100330000D03*
%TO.P,REF\u002A\u002A,26*%
X172720000Y-100330000D03*
%TD*%
%TO.P,REF\u002A\u002A,1*%
%TO.N,N/C*%
X109220000Y-105410000D03*
%TO.P,REF\u002A\u002A,2*%
X111760000Y-105410000D03*
%TO.P,REF\u002A\u002A,3*%
X114300000Y-105410000D03*
%TO.P,REF\u002A\u002A,4*%
X116840000Y-105410000D03*
%TO.P,REF\u002A\u002A,5*%
X119380000Y-105410000D03*
%TO.P,REF\u002A\u002A,6*%
X121920000Y-105410000D03*
%TO.P,REF\u002A\u002A,7*%
X124460000Y-105410000D03*
%TO.P,REF\u002A\u002A,8*%
X127000000Y-105410000D03*
%TO.P,REF\u002A\u002A,9*%
X129540000Y-105410000D03*
%TO.P,REF\u002A\u002A,10*%
X132080000Y-105410000D03*
%TO.P,REF\u002A\u002A,11*%
X134620000Y-105410000D03*
%TO.P,REF\u002A\u002A,12*%
X137160000Y-105410000D03*
%TO.P,REF\u002A\u002A,13*%
X139700000Y-105410000D03*
%TO.P,REF\u002A\u002A,14*%
X142240000Y-105410000D03*
%TO.P,REF\u002A\u002A,15*%
X144780000Y-105410000D03*
%TO.P,REF\u002A\u002A,16*%
X147320000Y-105410000D03*
%TO.P,REF\u002A\u002A,17*%
X149860000Y-105410000D03*
%TO.P,REF\u002A\u002A,18*%
X152400000Y-105410000D03*
%TO.P,REF\u002A\u002A,19*%
X154940000Y-105410000D03*
%TO.P,REF\u002A\u002A,20*%
X157480000Y-105410000D03*
%TO.P,REF\u002A\u002A,21*%
X160020000Y-105410000D03*
%TO.P,REF\u002A\u002A,22*%
X162560000Y-105410000D03*
%TO.P,REF\u002A\u002A,23*%
X165100000Y-105410000D03*
%TO.P,REF\u002A\u002A,24*%
X167640000Y-105410000D03*
%TO.P,REF\u002A\u002A,25*%
X170180000Y-105410000D03*
%TO.P,REF\u002A\u002A,26*%
X172720000Y-105410000D03*
%TD*%
%TO.P,REF\u002A\u002A,1*%
%TO.N,N/C*%
X109220000Y-87630000D03*
%TO.P,REF\u002A\u002A,2*%
X111760000Y-87630000D03*
%TO.P,REF\u002A\u002A,3*%
X114300000Y-87630000D03*
%TO.P,REF\u002A\u002A,4*%
X116840000Y-87630000D03*
%TO.P,REF\u002A\u002A,5*%
X119380000Y-87630000D03*
%TO.P,REF\u002A\u002A,6*%
X121920000Y-87630000D03*
%TO.P,REF\u002A\u002A,7*%
X124460000Y-87630000D03*
%TO.P,REF\u002A\u002A,8*%
X127000000Y-87630000D03*
%TO.P,REF\u002A\u002A,9*%
X129540000Y-87630000D03*
%TO.P,REF\u002A\u002A,10*%
X132080000Y-87630000D03*
%TO.P,REF\u002A\u002A,11*%
X134620000Y-87630000D03*
%TO.P,REF\u002A\u002A,12*%
X137160000Y-87630000D03*
%TO.P,REF\u002A\u002A,13*%
X139700000Y-87630000D03*
%TO.P,REF\u002A\u002A,14*%
X142240000Y-87630000D03*
%TO.P,REF\u002A\u002A,15*%
X144780000Y-87630000D03*
%TO.P,REF\u002A\u002A,16*%
X147320000Y-87630000D03*
%TO.P,REF\u002A\u002A,17*%
X149860000Y-87630000D03*
%TO.P,REF\u002A\u002A,18*%
X152400000Y-87630000D03*
%TO.P,REF\u002A\u002A,19*%
X154940000Y-87630000D03*
%TO.P,REF\u002A\u002A,20*%
X157480000Y-87630000D03*
%TO.P,REF\u002A\u002A,21*%
X160020000Y-87630000D03*
%TO.P,REF\u002A\u002A,22*%
X162560000Y-87630000D03*
%TO.P,REF\u002A\u002A,23*%
X165100000Y-87630000D03*
%TO.P,REF\u002A\u002A,24*%
X167640000Y-87630000D03*
%TD*%
%TO.P,REF\u002A\u002A,1*%
%TO.N,N/C*%
X109220000Y-92710000D03*
%TO.P,REF\u002A\u002A,2*%
X111760000Y-92710000D03*
%TO.P,REF\u002A\u002A,3*%
X114300000Y-92710000D03*
%TO.P,REF\u002A\u002A,4*%
X116840000Y-92710000D03*
%TO.P,REF\u002A\u002A,5*%
X119380000Y-92710000D03*
%TO.P,REF\u002A\u002A,6*%
X121920000Y-92710000D03*
%TO.P,REF\u002A\u002A,7*%
X124460000Y-92710000D03*
%TO.P,REF\u002A\u002A,8*%
X127000000Y-92710000D03*
%TO.P,REF\u002A\u002A,9*%
X129540000Y-92710000D03*
%TO.P,REF\u002A\u002A,10*%
X132080000Y-92710000D03*
%TO.P,REF\u002A\u002A,11*%
X134620000Y-92710000D03*
%TO.P,REF\u002A\u002A,12*%
X137160000Y-92710000D03*
%TO.P,REF\u002A\u002A,13*%
X139700000Y-92710000D03*
%TO.P,REF\u002A\u002A,14*%
X142240000Y-92710000D03*
%TO.P,REF\u002A\u002A,15*%
X144780000Y-92710000D03*
%TO.P,REF\u002A\u002A,16*%
X147320000Y-92710000D03*
%TO.P,REF\u002A\u002A,17*%
X149860000Y-92710000D03*
%TO.P,REF\u002A\u002A,18*%
X152400000Y-92710000D03*
%TO.P,REF\u002A\u002A,19*%
X154940000Y-92710000D03*
%TO.P,REF\u002A\u002A,20*%
X157480000Y-92710000D03*
%TO.P,REF\u002A\u002A,21*%
X160020000Y-92710000D03*
%TO.P,REF\u002A\u002A,22*%
X162560000Y-92710000D03*
%TO.P,REF\u002A\u002A,23*%
X165100000Y-92710000D03*
%TO.P,REF\u002A\u002A,24*%
X167640000Y-92710000D03*
%TD*%
%TO.P,REF\u002A\u002A,1*%
%TO.N,unconnected-(U6-Pad1)*%
X109220000Y-72390000D03*
%TO.P,REF\u002A\u002A,2*%
%TO.N,unconnected-(U6-Pad2)*%
X111760000Y-72390000D03*
%TO.P,REF\u002A\u002A,3*%
%TO.N,N/C*%
X114300000Y-72390000D03*
%TD*%
%TO.P,REF\u002A\u002A,1*%
%TO.N,N/C*%
X109220000Y-110490000D03*
%TO.P,REF\u002A\u002A,2*%
X111760000Y-110490000D03*
%TO.P,REF\u002A\u002A,3*%
X114300000Y-110490000D03*
%TO.P,REF\u002A\u002A,4*%
X116840000Y-110490000D03*
%TO.P,REF\u002A\u002A,5*%
X119380000Y-110490000D03*
%TO.P,REF\u002A\u002A,6*%
X121920000Y-110490000D03*
%TO.P,REF\u002A\u002A,7*%
%TO.N,unconnected-(U1-Pad1)*%
X124460000Y-110490000D03*
%TO.P,REF\u002A\u002A,8*%
%TO.N,unconnected-(U1-Pad2)*%
X127000000Y-110490000D03*
%TO.P,REF\u002A\u002A,9*%
%TO.N,unconnected-(U1-Pad3)*%
X129540000Y-110490000D03*
%TO.P,REF\u002A\u002A,10*%
%TO.N,N/C*%
X132080000Y-110490000D03*
%TO.P,REF\u002A\u002A,11*%
%TO.N,unconnected-(U2-Pad1)*%
X134620000Y-110490000D03*
%TO.P,REF\u002A\u002A,12*%
%TO.N,unconnected-(U2-Pad2)*%
X137160000Y-110490000D03*
%TO.P,REF\u002A\u002A,13*%
%TO.N,unconnected-(U2-Pad3)*%
X139700000Y-110490000D03*
%TO.P,REF\u002A\u002A,14*%
%TO.N,unconnected-(U2-Pad4)*%
X142240000Y-110490000D03*
%TO.P,REF\u002A\u002A,15*%
%TO.N,unconnected-(U2-Pad5)*%
X144780000Y-110490000D03*
%TO.P,REF\u002A\u002A,16*%
%TO.N,unconnected-(U2-Pad6)*%
X147320000Y-110490000D03*
%TO.P,REF\u002A\u002A,17*%
%TO.N,unconnected-(U2-Pad7)*%
X149860000Y-110490000D03*
%TO.P,REF\u002A\u002A,18*%
%TO.N,unconnected-(U2-Pad8)*%
X152400000Y-110490000D03*
%TO.P,REF\u002A\u002A,19*%
%TO.N,unconnected-(U3-Pad9)*%
X154940000Y-110490000D03*
%TO.P,REF\u002A\u002A,20*%
%TO.N,unconnected-(U3-Pad10)*%
X157480000Y-110490000D03*
%TO.P,REF\u002A\u002A,21*%
%TO.N,unconnected-(U3-Pad11)*%
X160020000Y-110490000D03*
%TO.P,REF\u002A\u002A,22*%
%TO.N,unconnected-(U3-Pad12)*%
X162560000Y-110490000D03*
%TO.P,REF\u002A\u002A,23*%
%TO.N,unconnected-(U3-Pad13)*%
X165100000Y-110490000D03*
%TO.P,REF\u002A\u002A,24*%
%TO.N,unconnected-(U3-Pad14)*%
X167640000Y-110490000D03*
%TD*%
D11*
%TO.P,U7,11,D7*%
%TO.N,unconnected-(U7-Pad11)*%
X152399990Y-68580010D03*
%TO.P,U7,12,~D6*%
%TO.N,unconnected-(U7-Pad12)*%
X154939990Y-68580010D03*
%TO.P,U7,13,~D5*%
%TO.N,unconnected-(U7-Pad13)*%
X157479990Y-68580010D03*
%TO.P,U7,14,D4*%
%TO.N,unconnected-(U7-Pad14)*%
X160019990Y-68580010D03*
%TO.P,U7,15,~D3*%
%TO.N,unconnected-(U7-Pad15)*%
X162559990Y-68580010D03*
%TO.P,U7,16,D2*%
%TO.N,unconnected-(U7-Pad16)*%
X165099990Y-68580010D03*
%TO.P,U7,17,D1/TX0*%
%TO.N,unconnected-(U7-Pad17)*%
X167639990Y-68580010D03*
%TO.P,U7,18,D0/RX0*%
%TO.N,unconnected-(U7-Pad18)*%
X170179990Y-68580010D03*
%TD*%
D10*
%TO.P,REF\u002A\u002A,1*%
%TO.N,N/C*%
X109220000Y-107950000D03*
%TO.P,REF\u002A\u002A,2*%
X111760000Y-107950000D03*
%TO.P,REF\u002A\u002A,3*%
X114300000Y-107950000D03*
%TO.P,REF\u002A\u002A,4*%
X116840000Y-107950000D03*
%TO.P,REF\u002A\u002A,5*%
X119380000Y-107950000D03*
%TO.P,REF\u002A\u002A,6*%
X121920000Y-107950000D03*
%TO.P,REF\u002A\u002A,7*%
X124460000Y-107950000D03*
%TO.P,REF\u002A\u002A,8*%
X127000000Y-107950000D03*
%TO.P,REF\u002A\u002A,9*%
X129540000Y-107950000D03*
%TO.P,REF\u002A\u002A,10*%
X132080000Y-107950000D03*
%TO.P,REF\u002A\u002A,11*%
X134620000Y-107950000D03*
%TO.P,REF\u002A\u002A,12*%
X137160000Y-107950000D03*
%TO.P,REF\u002A\u002A,13*%
X139700000Y-107950000D03*
%TO.P,REF\u002A\u002A,14*%
X142240000Y-107950000D03*
%TO.P,REF\u002A\u002A,15*%
X144780000Y-107950000D03*
%TO.P,REF\u002A\u002A,16*%
X147320000Y-107950000D03*
%TO.P,REF\u002A\u002A,17*%
X149860000Y-107950000D03*
%TO.P,REF\u002A\u002A,18*%
X152400000Y-107950000D03*
%TO.P,REF\u002A\u002A,19*%
X154940000Y-107950000D03*
%TO.P,REF\u002A\u002A,20*%
X157480000Y-107950000D03*
%TO.P,REF\u002A\u002A,21*%
X160020000Y-107950000D03*
%TO.P,REF\u002A\u002A,22*%
X162560000Y-107950000D03*
%TO.P,REF\u002A\u002A,23*%
X165100000Y-107950000D03*
%TO.P,REF\u002A\u002A,24*%
X167640000Y-107950000D03*
%TO.P,REF\u002A\u002A,25*%
X170180000Y-107950000D03*
%TO.P,REF\u002A\u002A,26*%
X172720000Y-107950000D03*
%TD*%
D11*
%TO.P,U6,1,SCL*%
%TO.N,unconnected-(U6-Pad1)*%
X125476000Y-68580000D03*
%TO.P,U6,2,SDA*%
%TO.N,unconnected-(U6-Pad2)*%
X128016000Y-68580000D03*
%TO.P,U6,3,AREF*%
%TO.N,unconnected-(U6-Pad3)*%
X130556000Y-68580000D03*
%TO.P,U6,4,GND*%
%TO.N,unconnected-(U6-Pad4)*%
X133096000Y-68580000D03*
%TO.P,U6,5,D13/SCK/CANRX0*%
%TO.N,unconnected-(U6-Pad5)*%
X135636000Y-68580000D03*
%TO.P,U6,6,D12/CIPO*%
%TO.N,unconnected-(U6-Pad6)*%
X138176000Y-68580000D03*
%TO.P,U6,7,~D11/COPI*%
%TO.N,unconnected-(U6-Pad7)*%
X140716000Y-68580000D03*
%TO.P,U6,8,~D10/CS/CANTX0*%
%TO.N,unconnected-(U6-Pad8)*%
X143256000Y-68580000D03*
%TO.P,U6,9,~D9*%
%TO.N,unconnected-(U6-Pad9)*%
X145796000Y-68580000D03*
%TO.P,U6,10,D8*%
%TO.N,unconnected-(U6-Pad10)*%
X148336000Y-68580000D03*
%TD*%
D10*
%TO.P,REF\u002A\u002A,1*%
%TO.N,N/C*%
X109220000Y-95250000D03*
%TO.P,REF\u002A\u002A,2*%
X111760000Y-95250000D03*
%TO.P,REF\u002A\u002A,3*%
X114300000Y-95250000D03*
%TO.P,REF\u002A\u002A,4*%
X116840000Y-95250000D03*
%TO.P,REF\u002A\u002A,5*%
X119380000Y-95250000D03*
%TO.P,REF\u002A\u002A,6*%
X121920000Y-95250000D03*
%TO.P,REF\u002A\u002A,7*%
X124460000Y-95250000D03*
%TO.P,REF\u002A\u002A,8*%
X127000000Y-95250000D03*
%TO.P,REF\u002A\u002A,9*%
X129540000Y-95250000D03*
%TO.P,REF\u002A\u002A,10*%
X132080000Y-95250000D03*
%TO.P,REF\u002A\u002A,11*%
X134620000Y-95250000D03*
%TO.P,REF\u002A\u002A,12*%
X137160000Y-95250000D03*
%TO.P,REF\u002A\u002A,13*%
X139700000Y-95250000D03*
%TO.P,REF\u002A\u002A,14*%
X142240000Y-95250000D03*
%TO.P,REF\u002A\u002A,15*%
X144780000Y-95250000D03*
%TO.P,REF\u002A\u002A,16*%
X147320000Y-95250000D03*
%TO.P,REF\u002A\u002A,17*%
X149860000Y-95250000D03*
%TO.P,REF\u002A\u002A,18*%
X152400000Y-95250000D03*
%TO.P,REF\u002A\u002A,19*%
X154940000Y-95250000D03*
%TO.P,REF\u002A\u002A,20*%
X157480000Y-95250000D03*
%TO.P,REF\u002A\u002A,21*%
X160020000Y-95250000D03*
%TO.P,REF\u002A\u002A,22*%
X162560000Y-95250000D03*
%TO.P,REF\u002A\u002A,23*%
X165100000Y-95250000D03*
%TO.P,REF\u002A\u002A,24*%
X167640000Y-95250000D03*
%TD*%
%TO.P,REF\u002A\u002A,1*%
%TO.N,N/C*%
X109220000Y-80010000D03*
%TO.P,REF\u002A\u002A,2*%
X111760000Y-80010000D03*
%TO.P,REF\u002A\u002A,3*%
X114300000Y-80010000D03*
%TO.P,REF\u002A\u002A,4*%
X116840000Y-80010000D03*
%TO.P,REF\u002A\u002A,5*%
X119380000Y-80010000D03*
%TO.P,REF\u002A\u002A,10*%
X132080000Y-80010000D03*
%TO.P,REF\u002A\u002A,11*%
X134620000Y-80010000D03*
%TO.P,REF\u002A\u002A,12*%
X137160000Y-80010000D03*
%TO.P,REF\u002A\u002A,13*%
X139700000Y-80010000D03*
%TO.P,REF\u002A\u002A,14*%
X142240000Y-80010000D03*
%TO.P,REF\u002A\u002A,15*%
X144780000Y-80010000D03*
%TO.P,REF\u002A\u002A,16*%
X147320000Y-80010000D03*
%TO.P,REF\u002A\u002A,17*%
X149860000Y-80010000D03*
%TO.P,REF\u002A\u002A,18*%
X152400000Y-80010000D03*
%TO.P,REF\u002A\u002A,19*%
X154940000Y-80010000D03*
%TO.P,REF\u002A\u002A,20*%
X157480000Y-80010000D03*
%TO.P,REF\u002A\u002A,21*%
X160020000Y-80010000D03*
%TO.P,REF\u002A\u002A,22*%
X162560000Y-80010000D03*
%TO.P,REF\u002A\u002A,23*%
X165100000Y-80010000D03*
%TO.P,REF\u002A\u002A,24*%
X167640000Y-80010000D03*
%TO.P,REF\u002A\u002A,25*%
X170180000Y-80010000D03*
%TD*%
D11*
%TO.P,U3,9,A0*%
%TO.N,unconnected-(U3-Pad9)*%
X157480000Y-116840000D03*
%TO.P,U3,10,A1*%
%TO.N,unconnected-(U3-Pad10)*%
X160020000Y-116840000D03*
%TO.P,U3,11,A2*%
%TO.N,unconnected-(U3-Pad11)*%
X162560000Y-116840000D03*
%TO.P,U3,12,A3*%
%TO.N,unconnected-(U3-Pad12)*%
X165100000Y-116840000D03*
%TO.P,U3,13,A4*%
%TO.N,unconnected-(U3-Pad13)*%
X167640000Y-116840000D03*
%TO.P,U3,14,A5*%
%TO.N,unconnected-(U3-Pad14)*%
X170180000Y-116840000D03*
%TD*%
%TO.P,U2,1,BOOT*%
%TO.N,unconnected-(U2-Pad1)*%
X134620000Y-116840000D03*
%TO.P,U2,2,IOREF*%
%TO.N,unconnected-(U2-Pad2)*%
X137160000Y-116840000D03*
%TO.P,U2,3,Reset*%
%TO.N,unconnected-(U2-Pad3)*%
X139700000Y-116840000D03*
%TO.P,U2,4,+3V3*%
%TO.N,unconnected-(U2-Pad4)*%
X142240000Y-116840000D03*
%TO.P,U2,5,+5V*%
%TO.N,unconnected-(U2-Pad5)*%
X144780000Y-116840000D03*
%TO.P,U2,6,GND*%
%TO.N,unconnected-(U2-Pad6)*%
X147320000Y-116840000D03*
%TO.P,U2,7,GND*%
%TO.N,unconnected-(U2-Pad7)*%
X149860000Y-116840000D03*
%TO.P,U2,8,VIN*%
%TO.N,unconnected-(U2-Pad8)*%
X152400000Y-116840000D03*
%TD*%
D10*
%TO.P,REF\u002A\u002A,1*%
%TO.N,N/C*%
X109220000Y-74930000D03*
%TO.P,REF\u002A\u002A,2*%
X111760000Y-74930000D03*
%TO.P,REF\u002A\u002A,3*%
X114300000Y-74930000D03*
%TO.P,REF\u002A\u002A,4*%
X116840000Y-74930000D03*
%TO.P,REF\u002A\u002A,5*%
X119380000Y-74930000D03*
%TO.P,REF\u002A\u002A,10*%
%TO.N,unconnected-(U6-Pad3)*%
X132080000Y-74930000D03*
%TO.P,REF\u002A\u002A,11*%
%TO.N,unconnected-(U6-Pad4)*%
X134620000Y-74930000D03*
%TO.P,REF\u002A\u002A,12*%
%TO.N,unconnected-(U6-Pad5)*%
X137160000Y-74930000D03*
%TO.P,REF\u002A\u002A,13*%
%TO.N,unconnected-(U6-Pad6)*%
X139700000Y-74930000D03*
%TO.P,REF\u002A\u002A,14*%
%TO.N,unconnected-(U6-Pad7)*%
X142240000Y-74930000D03*
%TO.P,REF\u002A\u002A,15*%
%TO.N,unconnected-(U6-Pad8)*%
X144780000Y-74930000D03*
%TO.P,REF\u002A\u002A,16*%
%TO.N,unconnected-(U6-Pad9)*%
X147320000Y-74930000D03*
%TO.P,REF\u002A\u002A,17*%
%TO.N,unconnected-(U6-Pad10)*%
X149860000Y-74930000D03*
%TO.P,REF\u002A\u002A,18*%
%TO.N,unconnected-(U7-Pad11)*%
X152400000Y-74930000D03*
%TO.P,REF\u002A\u002A,19*%
%TO.N,unconnected-(U7-Pad12)*%
X154940000Y-74930000D03*
%TO.P,REF\u002A\u002A,20*%
%TO.N,unconnected-(U7-Pad13)*%
X157480000Y-74930000D03*
%TO.P,REF\u002A\u002A,21*%
%TO.N,unconnected-(U7-Pad14)*%
X160020000Y-74930000D03*
%TO.P,REF\u002A\u002A,22*%
%TO.N,unconnected-(U7-Pad15)*%
X162560000Y-74930000D03*
%TO.P,REF\u002A\u002A,23*%
%TO.N,unconnected-(U7-Pad16)*%
X165100000Y-74930000D03*
%TO.P,REF\u002A\u002A,24*%
%TO.N,unconnected-(U7-Pad17)*%
X167640000Y-74930000D03*
%TO.P,REF\u002A\u002A,25*%
%TO.N,unconnected-(U7-Pad18)*%
X170180000Y-74930000D03*
%TD*%
%TO.P,REF\u002A\u002A,1*%
%TO.N,N/C*%
X109220000Y-82550000D03*
%TO.P,REF\u002A\u002A,2*%
X111760000Y-82550000D03*
%TO.P,REF\u002A\u002A,3*%
X114300000Y-82550000D03*
%TO.P,REF\u002A\u002A,4*%
X116840000Y-82550000D03*
%TO.P,REF\u002A\u002A,5*%
X119380000Y-82550000D03*
%TO.P,REF\u002A\u002A,10*%
X132080000Y-82550000D03*
%TO.P,REF\u002A\u002A,11*%
X134620000Y-82550000D03*
%TO.P,REF\u002A\u002A,12*%
X137160000Y-82550000D03*
%TO.P,REF\u002A\u002A,13*%
X139700000Y-82550000D03*
%TO.P,REF\u002A\u002A,14*%
X142240000Y-82550000D03*
%TO.P,REF\u002A\u002A,15*%
X144780000Y-82550000D03*
%TO.P,REF\u002A\u002A,16*%
X147320000Y-82550000D03*
%TO.P,REF\u002A\u002A,17*%
X149860000Y-82550000D03*
%TO.P,REF\u002A\u002A,18*%
X152400000Y-82550000D03*
%TO.P,REF\u002A\u002A,19*%
X154940000Y-82550000D03*
%TO.P,REF\u002A\u002A,20*%
X157480000Y-82550000D03*
%TO.P,REF\u002A\u002A,21*%
X160020000Y-82550000D03*
%TO.P,REF\u002A\u002A,22*%
X162560000Y-82550000D03*
%TO.P,REF\u002A\u002A,23*%
X165100000Y-82550000D03*
%TO.P,REF\u002A\u002A,24*%
X167640000Y-82550000D03*
%TD*%
D11*
%TO.P,U4,1,GPIO42*%
%TO.N,unconnected-(U4-Pad1)*%
X128016000Y-76149200D03*
%TO.P,U4,2,GPIO41*%
%TO.N,unconnected-(U4-Pad2)*%
X128016000Y-78689200D03*
%TO.P,U4,3,GPIO43/TXD0*%
%TO.N,unconnected-(U4-Pad3)*%
X125476000Y-76149200D03*
%TO.P,U4,4,GPIO0/DOWNLOAD*%
%TO.N,unconnected-(U4-Pad4)*%
X125476000Y-78689200D03*
%TO.P,U4,5,GPIO44/RXD0*%
%TO.N,unconnected-(U4-Pad5)*%
X122936000Y-76149200D03*
%TO.P,U4,6,GND*%
%TO.N,unconnected-(U4-Pad6)*%
X122936000Y-78689200D03*
%TD*%
D12*
%TO.N,unconnected-(U6-Pad2)*%
X111760000Y-71755000D02*
X111760000Y-72390000D01*
X112550000Y-70965000D02*
X111760000Y-71755000D01*
X116050000Y-70965000D02*
X112550000Y-70965000D01*
X118110000Y-73025000D02*
X116050000Y-70965000D01*
X125095000Y-73025000D02*
X118110000Y-73025000D01*
X128016000Y-70104000D02*
X125095000Y-73025000D01*
X128016000Y-68580000D02*
X128016000Y-70104000D01*
%TO.N,unconnected-(U6-Pad1)*%
X109220000Y-71120000D02*
X109220000Y-72390000D01*
X110490000Y-69850000D02*
X109220000Y-71120000D01*
X116840000Y-69850000D02*
X110490000Y-69850000D01*
X118745000Y-71755000D02*
X116840000Y-69850000D01*
X123825000Y-71755000D02*
X118745000Y-71755000D01*
X125476000Y-70104000D02*
X123825000Y-71755000D01*
X125476000Y-68580000D02*
X125476000Y-70104000D01*
%TO.N,unconnected-(U3-Pad9)*%
X154940000Y-113030000D02*
X154940000Y-110490000D01*
X157480000Y-115570000D02*
X154940000Y-113030000D01*
X157480000Y-116840000D02*
X157480000Y-115570000D01*
%TO.N,unconnected-(U3-Pad10)*%
X157480000Y-113030000D02*
X157480000Y-110490000D01*
X160020000Y-115570000D02*
X157480000Y-113030000D01*
X160020000Y-116840000D02*
X160020000Y-115570000D01*
%TO.N,unconnected-(U3-Pad11)*%
X160020000Y-113030000D02*
X160020000Y-110490000D01*
X162560000Y-115570000D02*
X160020000Y-113030000D01*
X162560000Y-116840000D02*
X162560000Y-115570000D01*
%TO.N,unconnected-(U3-Pad12)*%
X162560000Y-113030000D02*
X162560000Y-110490000D01*
X165100000Y-115570000D02*
X162560000Y-113030000D01*
X165100000Y-116840000D02*
X165100000Y-115570000D01*
%TO.N,unconnected-(U3-Pad13)*%
X167640000Y-115570000D02*
X165100000Y-113030000D01*
X167640000Y-116840000D02*
X167640000Y-115570000D01*
X165100000Y-113030000D02*
X165100000Y-110490000D01*
%TO.N,unconnected-(U3-Pad14)*%
X167640000Y-113030000D02*
X167640000Y-110490000D01*
X170180000Y-115570000D02*
X167640000Y-113030000D01*
X170180000Y-116840000D02*
X170180000Y-115570000D01*
D13*
%TO.N,unconnected-(U1-Pad1)*%
X124474990Y-116840010D02*
X124474990Y-110504990D01*
X124474990Y-110504990D02*
X124460000Y-110490000D01*
%TO.N,unconnected-(U1-Pad2)*%
X127000000Y-110490000D02*
X127000000Y-116825020D01*
X127000000Y-116825020D02*
X127014990Y-116840010D01*
%TO.N,unconnected-(U1-Pad3)*%
X129540000Y-116825020D02*
X129554990Y-116840010D01*
X129540000Y-110490000D02*
X129540000Y-116825020D01*
%TO.N,unconnected-(U2-Pad1)*%
X134620000Y-110490000D02*
X134620000Y-116840000D01*
%TO.N,unconnected-(U2-Pad2)*%
X137160000Y-110490000D02*
X137160000Y-116840000D01*
%TO.N,unconnected-(U2-Pad3)*%
X139700000Y-110490000D02*
X139700000Y-116840000D01*
%TO.N,unconnected-(U2-Pad4)*%
X142240000Y-110490000D02*
X142240000Y-116840000D01*
%TO.N,unconnected-(U2-Pad5)*%
X144780000Y-110490000D02*
X144780000Y-116840000D01*
%TO.N,unconnected-(U2-Pad6)*%
X147320000Y-110490000D02*
X147320000Y-116840000D01*
%TO.N,unconnected-(U2-Pad7)*%
X149860000Y-110490000D02*
X149860000Y-116840000D01*
%TO.N,unconnected-(U2-Pad8)*%
X152400000Y-116840000D02*
X152400000Y-110490000D01*
D14*
%TO.N,unconnected-(U6-Pad2)*%
X111760000Y-72136000D02*
X111760000Y-72390000D01*
D13*
%TO.N,unconnected-(U6-Pad3)*%
X130556000Y-68580000D02*
X130556000Y-71307018D01*
X130556000Y-71307018D02*
X132080000Y-72831018D01*
X132080000Y-72831018D02*
X132080000Y-74930000D01*
%TO.N,unconnected-(U6-Pad4)*%
X134620000Y-72684012D02*
X134620000Y-74930000D01*
X133096000Y-71160012D02*
X134620000Y-72684012D01*
X133096000Y-68580000D02*
X133096000Y-71160012D01*
%TO.N,unconnected-(U6-Pad5)*%
X135636000Y-68580000D02*
X135636000Y-71013006D01*
X135636000Y-71013006D02*
X137160000Y-72537006D01*
X137160000Y-72537006D02*
X137160000Y-74930000D01*
%TO.N,unconnected-(U6-Pad6)*%
X139700000Y-74930000D02*
X139700000Y-72390000D01*
X138176000Y-70866000D02*
X138176000Y-68580000D01*
X139700000Y-72390000D02*
X138176000Y-70866000D01*
%TO.N,unconnected-(U6-Pad7)*%
X140716000Y-68580000D02*
X140716000Y-70037018D01*
X140716000Y-70037018D02*
X142240000Y-71561018D01*
X142240000Y-71561018D02*
X142240000Y-74930000D01*
%TO.N,unconnected-(U6-Pad8)*%
X143256000Y-69890012D02*
X144780000Y-71414012D01*
X144780000Y-71414012D02*
X144780000Y-74930000D01*
X143256000Y-68580000D02*
X143256000Y-69890012D01*
%TO.N,unconnected-(U6-Pad9)*%
X145796000Y-69743006D02*
X145796000Y-68580000D01*
X147320000Y-71267006D02*
X145796000Y-69743006D01*
X147320000Y-74930000D02*
X147320000Y-71267006D01*
%TO.N,unconnected-(U6-Pad10)*%
X149860000Y-71120000D02*
X149860000Y-74930000D01*
X148336000Y-68580000D02*
X148336000Y-69596000D01*
X148336000Y-69596000D02*
X149860000Y-71120000D01*
%TO.N,unconnected-(U7-Pad11)*%
X152400000Y-68580020D02*
X152399990Y-68580010D01*
X152400000Y-74930000D02*
X152400000Y-68580020D01*
%TO.N,unconnected-(U7-Pad12)*%
X154939990Y-74929990D02*
X154940000Y-74930000D01*
X154939990Y-68580010D02*
X154939990Y-74929990D01*
%TO.N,unconnected-(U7-Pad13)*%
X157479990Y-68580010D02*
X157479990Y-74929990D01*
X157479990Y-74929990D02*
X157480000Y-74930000D01*
%TO.N,unconnected-(U7-Pad14)*%
X160019990Y-74929990D02*
X160020000Y-74930000D01*
X160019990Y-68580010D02*
X160019990Y-74929990D01*
%TO.N,unconnected-(U7-Pad15)*%
X162559990Y-74929990D02*
X162560000Y-74930000D01*
X162559990Y-68580010D02*
X162559990Y-74929990D01*
%TO.N,unconnected-(U7-Pad16)*%
X165099990Y-74929990D02*
X165100000Y-74930000D01*
X165099990Y-68580010D02*
X165099990Y-74929990D01*
%TO.N,unconnected-(U7-Pad17)*%
X167639990Y-68580010D02*
X167639990Y-74929990D01*
X167639990Y-74929990D02*
X167640000Y-74930000D01*
%TO.N,unconnected-(U7-Pad18)*%
X170179990Y-68580010D02*
X170179990Y-74929990D01*
X170179990Y-74929990D02*
X170180000Y-74930000D01*
%TD*%
M02*
