M48
; DRILL file {KiCad (6.0.10)} date Thu Jul 13 12:22:51 2023
; FORMAT={-:-/ absolute / inch / decimal}
; #@! TF.CreationDate,2023-07-13T12:22:51-04:00
; #@! TF.GenerationSoftware,Kicad,Pcbnew,(6.0.10)
; #@! TF.FileFunction,Plated,1,2,PTH
FMAT,2
INCH
; #@! TA.AperFunction,Plated,PTH,ComponentDrill
T1C0.0335
; #@! TA.AperFunction,Plated,PTH,ComponentDrill
T2C0.0394
%
G90
G05
T1
X4.84Y-2.998
X4.84Y-3.098
X4.9006Y-4.6
X4.94Y-2.7
X4.94Y-2.998
X4.94Y-3.098
X5.0006Y-4.6
X5.04Y-2.7
X5.04Y-2.998
X5.04Y-3.098
X5.1006Y-4.6
X5.14Y-2.7
X5.24Y-2.7
X5.3Y-4.6
X5.34Y-2.7
X5.4Y-4.6
X5.44Y-2.7
X5.5Y-4.6
X5.54Y-2.7
X5.6Y-4.6
X5.64Y-2.7
X5.7Y-4.6
X5.74Y-2.7
X5.8Y-4.6
X5.84Y-2.7
X5.9Y-4.6
X6.0Y-2.7
X6.0Y-4.6
X6.1Y-2.7
X6.2Y-2.7
X6.2Y-4.6
X6.3Y-2.7
X6.3Y-4.6
X6.4Y-2.7
X6.4Y-4.6
X6.5Y-2.7
X6.5Y-4.6
X6.6Y-2.7
X6.6Y-4.6
X6.7Y-2.7
X6.7Y-4.6
X6.7048Y-3.5006
X6.7048Y-3.6006
X6.7048Y-3.7006
X6.8048Y-3.5006
X6.8048Y-3.6006
X6.8048Y-3.7006
T2
X4.3Y-2.85
X4.3Y-2.95
X4.3Y-3.05
X4.3Y-3.15
X4.3Y-3.25
X4.3Y-3.35
X4.3Y-3.45
X4.3Y-3.55
X4.3Y-3.65
X4.3Y-3.75
X4.3Y-3.85
X4.3Y-3.95
X4.3Y-4.05
X4.3Y-4.15
X4.3Y-4.25
X4.3Y-4.35
X4.3Y-4.45
X4.3Y-4.55
X4.4Y-2.85
X4.4Y-2.95
X4.4Y-3.05
X4.4Y-3.15
X4.4Y-3.25
X4.4Y-3.35
X4.4Y-3.45
X4.4Y-3.55
X4.4Y-3.65
X4.4Y-3.75
X4.4Y-3.85
X4.4Y-3.95
X4.4Y-4.05
X4.4Y-4.15
X4.4Y-4.25
X4.4Y-4.35
X4.4Y-4.45
X4.4Y-4.55
X4.5Y-2.85
X4.5Y-2.95
X4.5Y-3.05
X4.5Y-3.15
X4.5Y-3.25
X4.5Y-3.35
X4.5Y-3.45
X4.5Y-3.55
X4.5Y-3.65
X4.5Y-3.75
X4.5Y-3.85
X4.5Y-3.95
X4.5Y-4.05
X4.5Y-4.15
X4.5Y-4.25
X4.5Y-4.35
X4.5Y-4.45
X4.5Y-4.55
X4.6Y-2.95
X4.6Y-3.05
X4.6Y-3.15
X4.6Y-3.25
X4.6Y-3.35
X4.6Y-3.45
X4.6Y-3.55
X4.6Y-3.65
X4.6Y-3.75
X4.6Y-3.85
X4.6Y-3.95
X4.6Y-4.05
X4.6Y-4.15
X4.6Y-4.25
X4.6Y-4.35
X4.6Y-4.45
X4.6Y-4.55
X4.7Y-2.95
X4.7Y-3.05
X4.7Y-3.15
X4.7Y-3.25
X4.7Y-3.35
X4.7Y-3.45
X4.7Y-3.55
X4.7Y-3.65
X4.7Y-3.75
X4.7Y-3.85
X4.7Y-3.95
X4.7Y-4.05
X4.7Y-4.15
X4.7Y-4.25
X4.7Y-4.35
X4.7Y-4.45
X4.8Y-3.35
X4.8Y-3.45
X4.8Y-3.55
X4.8Y-3.65
X4.8Y-3.75
X4.8Y-3.85
X4.8Y-3.95
X4.8Y-4.05
X4.8Y-4.15
X4.8Y-4.25
X4.8Y-4.35
X4.8Y-4.45
X4.9Y-3.35
X4.9Y-3.45
X4.9Y-3.55
X4.9Y-3.65
X4.9Y-3.75
X4.9Y-3.85
X4.9Y-3.95
X4.9Y-4.05
X4.9Y-4.15
X4.9Y-4.25
X4.9Y-4.35
X5.0Y-3.35
X5.0Y-3.45
X5.0Y-3.55
X5.0Y-3.65
X5.0Y-3.75
X5.0Y-3.85
X5.0Y-3.95
X5.0Y-4.05
X5.0Y-4.15
X5.0Y-4.25
X5.0Y-4.35
X5.1Y-3.35
X5.1Y-3.45
X5.1Y-3.55
X5.1Y-3.65
X5.1Y-3.75
X5.1Y-3.85
X5.1Y-3.95
X5.1Y-4.05
X5.1Y-4.15
X5.1Y-4.25
X5.1Y-4.35
X5.2Y-2.95
X5.2Y-3.05
X5.2Y-3.15
X5.2Y-3.25
X5.2Y-3.35
X5.2Y-3.45
X5.2Y-3.55
X5.2Y-3.65
X5.2Y-3.75
X5.2Y-3.85
X5.2Y-3.95
X5.2Y-4.05
X5.2Y-4.15
X5.2Y-4.25
X5.2Y-4.35
X5.3Y-2.95
X5.3Y-3.05
X5.3Y-3.15
X5.3Y-3.25
X5.3Y-3.35
X5.3Y-3.45
X5.3Y-3.55
X5.3Y-3.65
X5.3Y-3.75
X5.3Y-3.85
X5.3Y-3.95
X5.3Y-4.05
X5.3Y-4.15
X5.3Y-4.25
X5.3Y-4.35
X5.4Y-2.95
X5.4Y-3.05
X5.4Y-3.15
X5.4Y-3.25
X5.4Y-3.35
X5.4Y-3.45
X5.4Y-3.55
X5.4Y-3.65
X5.4Y-3.75
X5.4Y-3.85
X5.4Y-3.95
X5.4Y-4.05
X5.4Y-4.15
X5.4Y-4.25
X5.4Y-4.35
X5.5Y-2.95
X5.5Y-3.05
X5.5Y-3.15
X5.5Y-3.25
X5.5Y-3.35
X5.5Y-3.45
X5.5Y-3.55
X5.5Y-3.65
X5.5Y-3.75
X5.5Y-3.85
X5.5Y-3.95
X5.5Y-4.05
X5.5Y-4.15
X5.5Y-4.25
X5.5Y-4.35
X5.6Y-2.95
X5.6Y-3.05
X5.6Y-3.15
X5.6Y-3.25
X5.6Y-3.35
X5.6Y-3.45
X5.6Y-3.55
X5.6Y-3.65
X5.6Y-3.75
X5.6Y-3.85
X5.6Y-3.95
X5.6Y-4.05
X5.6Y-4.15
X5.6Y-4.25
X5.6Y-4.35
X5.7Y-2.95
X5.7Y-3.05
X5.7Y-3.15
X5.7Y-3.25
X5.7Y-3.35
X5.7Y-3.45
X5.7Y-3.55
X5.7Y-3.65
X5.7Y-3.75
X5.7Y-3.85
X5.7Y-3.95
X5.7Y-4.05
X5.7Y-4.15
X5.7Y-4.25
X5.7Y-4.35
X5.8Y-2.95
X5.8Y-3.05
X5.8Y-3.15
X5.8Y-3.25
X5.8Y-3.35
X5.8Y-3.45
X5.8Y-3.55
X5.8Y-3.65
X5.8Y-3.75
X5.8Y-3.85
X5.8Y-3.95
X5.8Y-4.05
X5.8Y-4.15
X5.8Y-4.25
X5.8Y-4.35
X5.9Y-2.95
X5.9Y-3.05
X5.9Y-3.15
X5.9Y-3.25
X5.9Y-3.35
X5.9Y-3.45
X5.9Y-3.55
X5.9Y-3.65
X5.9Y-3.75
X5.9Y-3.85
X5.9Y-3.95
X5.9Y-4.05
X5.9Y-4.15
X5.9Y-4.25
X5.9Y-4.35
X6.0Y-2.95
X6.0Y-3.05
X6.0Y-3.15
X6.0Y-3.25
X6.0Y-3.35
X6.0Y-3.45
X6.0Y-3.55
X6.0Y-3.65
X6.0Y-3.75
X6.0Y-3.85
X6.0Y-3.95
X6.0Y-4.05
X6.0Y-4.15
X6.0Y-4.25
X6.0Y-4.35
X6.1Y-2.95
X6.1Y-3.05
X6.1Y-3.15
X6.1Y-3.25
X6.1Y-3.35
X6.1Y-3.45
X6.1Y-3.55
X6.1Y-3.65
X6.1Y-3.75
X6.1Y-3.85
X6.1Y-3.95
X6.1Y-4.05
X6.1Y-4.15
X6.1Y-4.25
X6.1Y-4.35
X6.2Y-2.95
X6.2Y-3.05
X6.2Y-3.15
X6.2Y-3.25
X6.2Y-3.35
X6.2Y-3.45
X6.2Y-3.55
X6.2Y-3.65
X6.2Y-3.75
X6.2Y-3.85
X6.2Y-3.95
X6.2Y-4.05
X6.2Y-4.15
X6.2Y-4.25
X6.2Y-4.35
X6.3Y-2.95
X6.3Y-3.05
X6.3Y-3.15
X6.3Y-3.25
X6.3Y-3.35
X6.3Y-3.45
X6.3Y-3.55
X6.3Y-3.65
X6.3Y-3.75
X6.3Y-3.85
X6.3Y-3.95
X6.3Y-4.05
X6.3Y-4.15
X6.3Y-4.25
X6.3Y-4.35
X6.4Y-2.95
X6.4Y-3.05
X6.4Y-3.15
X6.4Y-3.25
X6.4Y-3.35
X6.4Y-3.45
X6.4Y-3.55
X6.4Y-3.65
X6.4Y-3.75
X6.4Y-3.85
X6.4Y-3.95
X6.4Y-4.05
X6.4Y-4.15
X6.4Y-4.25
X6.4Y-4.35
X6.5Y-2.95
X6.5Y-3.05
X6.5Y-3.15
X6.5Y-3.25
X6.5Y-3.35
X6.5Y-3.45
X6.5Y-3.55
X6.5Y-3.65
X6.5Y-3.75
X6.5Y-3.85
X6.5Y-3.95
X6.5Y-4.05
X6.5Y-4.15
X6.5Y-4.25
X6.5Y-4.35
X6.6Y-2.95
X6.6Y-3.05
X6.6Y-3.15
X6.6Y-3.25
X6.6Y-3.35
X6.6Y-3.45
X6.6Y-3.55
X6.6Y-3.65
X6.6Y-3.75
X6.6Y-3.85
X6.6Y-3.95
X6.6Y-4.05
X6.6Y-4.15
X6.6Y-4.25
X6.6Y-4.35
X6.7Y-2.95
X6.7Y-3.05
X6.7Y-3.15
X6.7Y-3.85
X6.7Y-3.95
X6.7Y-4.05
X6.7Y-4.15
X6.7Y-4.25
X6.8Y-3.85
X6.8Y-3.95
X6.8Y-4.05
X6.8Y-4.15
X6.8Y-4.25
T0
M30
