%TF.GenerationSoftware,KiCad,Pcbnew,(6.0.10)*%
%TF.CreationDate,2023-07-13T12:22:52-04:00*%
%TF.ProjectId,ArduinoUnoR4Shield,41726475-696e-46f5-956e-6f5234536869,1.0*%
%TF.SameCoordinates,Original*%
%TF.FileFunction,Legend,Top*%
%TF.FilePolarity,Positive*%
%FSLAX46Y46*%
G04 Gerber Fmt 4.6, Leading zero omitted, Abs format (unit mm)*
G04 Created by KiCad (PCBNEW (6.0.10)) date 2023-07-13 12:22:52*
%MOMM*%
%LPD*%
G01*
G04 APERTURE LIST*
%ADD10C,0.150000*%
%ADD11C,0.250000*%
%ADD12C,0.120000*%
G04 APERTURE END LIST*
D10*
X123190000Y-109220000D02*
X123190000Y-115062000D01*
X153670000Y-109220000D02*
X153670000Y-115062000D01*
X130810000Y-109220000D02*
X123190000Y-109220000D01*
X151130000Y-76200000D02*
X151130000Y-70358000D01*
X130810000Y-109220000D02*
X130810000Y-115062000D01*
X171450000Y-76200000D02*
X171450000Y-70358000D01*
X133350000Y-115062000D02*
X133350000Y-109220000D01*
X113030000Y-73660000D02*
X107950000Y-73660000D01*
X153670000Y-109220000D02*
X168910000Y-109220000D01*
X130810000Y-76200000D02*
X130810000Y-70358000D01*
X107950000Y-73660000D02*
X107950000Y-67310000D01*
X171450000Y-76200000D02*
X151130000Y-76200000D01*
X133350000Y-109220000D02*
X153670000Y-109220000D01*
X168910000Y-109347000D02*
X168910000Y-115189000D01*
X151130000Y-76200000D02*
X130810000Y-76200000D01*
X113030000Y-73533000D02*
X113030000Y-67183000D01*
D11*
X162012380Y-73608642D02*
X162012380Y-72989595D01*
X162393333Y-73322928D01*
X162393333Y-73180071D01*
X162440952Y-73084833D01*
X162488571Y-73037214D01*
X162583809Y-72989595D01*
X162821904Y-72989595D01*
X162917142Y-73037214D01*
X162964761Y-73084833D01*
X163012380Y-73180071D01*
X163012380Y-73465785D01*
X162964761Y-73561023D01*
X162917142Y-73608642D01*
X160186666Y-113287547D02*
X160186666Y-112811357D01*
X160472380Y-113382785D02*
X159472380Y-113049452D01*
X160472380Y-112716119D01*
X159567619Y-112430404D02*
X159520000Y-112382785D01*
X159472380Y-112287547D01*
X159472380Y-112049452D01*
X159520000Y-111954214D01*
X159567619Y-111906595D01*
X159662857Y-111858976D01*
X159758095Y-111858976D01*
X159900952Y-111906595D01*
X160472380Y-112478023D01*
X160472380Y-111858976D01*
X112164761Y-71064285D02*
X112212380Y-70921428D01*
X112212380Y-70683333D01*
X112164761Y-70588095D01*
X112117142Y-70540476D01*
X112021904Y-70492857D01*
X111926666Y-70492857D01*
X111831428Y-70540476D01*
X111783809Y-70588095D01*
X111736190Y-70683333D01*
X111688571Y-70873809D01*
X111640952Y-70969047D01*
X111593333Y-71016666D01*
X111498095Y-71064285D01*
X111402857Y-71064285D01*
X111307619Y-71016666D01*
X111260000Y-70969047D01*
X111212380Y-70873809D01*
X111212380Y-70635714D01*
X111260000Y-70492857D01*
X112212380Y-70064285D02*
X111212380Y-70064285D01*
X111212380Y-69826190D01*
X111260000Y-69683333D01*
X111355238Y-69588095D01*
X111450476Y-69540476D01*
X111640952Y-69492857D01*
X111783809Y-69492857D01*
X111974285Y-69540476D01*
X112069523Y-69588095D01*
X112164761Y-69683333D01*
X112212380Y-69826190D01*
X112212380Y-70064285D01*
X111926666Y-69111904D02*
X111926666Y-68635714D01*
X112212380Y-69207142D02*
X111212380Y-68873809D01*
X112212380Y-68540476D01*
X156932380Y-73037214D02*
X156932380Y-73513404D01*
X157408571Y-73561023D01*
X157360952Y-73513404D01*
X157313333Y-73418166D01*
X157313333Y-73180071D01*
X157360952Y-73084833D01*
X157408571Y-73037214D01*
X157503809Y-72989595D01*
X157741904Y-72989595D01*
X157837142Y-73037214D01*
X157884761Y-73084833D01*
X157932380Y-73180071D01*
X157932380Y-73418166D01*
X157884761Y-73513404D01*
X157837142Y-73561023D01*
X145232380Y-72989595D02*
X145232380Y-73561023D01*
X145232380Y-73275309D02*
X144232380Y-73275309D01*
X144375238Y-73370547D01*
X144470476Y-73465785D01*
X144518095Y-73561023D01*
X144232380Y-72370547D02*
X144232380Y-72275309D01*
X144280000Y-72180071D01*
X144327619Y-72132452D01*
X144422857Y-72084833D01*
X144613333Y-72037214D01*
X144851428Y-72037214D01*
X145041904Y-72084833D01*
X145137142Y-72132452D01*
X145184761Y-72180071D01*
X145232380Y-72275309D01*
X145232380Y-72370547D01*
X145184761Y-72465785D01*
X145137142Y-72513404D01*
X145041904Y-72561023D01*
X144851428Y-72608642D01*
X144613333Y-72608642D01*
X144422857Y-72561023D01*
X144327619Y-72513404D01*
X144280000Y-72465785D01*
X144232380Y-72370547D01*
X134120000Y-72989595D02*
X134072380Y-73084833D01*
X134072380Y-73227690D01*
X134120000Y-73370547D01*
X134215238Y-73465785D01*
X134310476Y-73513404D01*
X134500952Y-73561023D01*
X134643809Y-73561023D01*
X134834285Y-73513404D01*
X134929523Y-73465785D01*
X135024761Y-73370547D01*
X135072380Y-73227690D01*
X135072380Y-73132452D01*
X135024761Y-72989595D01*
X134977142Y-72941976D01*
X134643809Y-72941976D01*
X134643809Y-73132452D01*
X135072380Y-72513404D02*
X134072380Y-72513404D01*
X135072380Y-71941976D01*
X134072380Y-71941976D01*
X135072380Y-71465785D02*
X134072380Y-71465785D01*
X134072380Y-71227690D01*
X134120000Y-71084833D01*
X134215238Y-70989595D01*
X134310476Y-70941976D01*
X134500952Y-70894357D01*
X134643809Y-70894357D01*
X134834285Y-70941976D01*
X134929523Y-70989595D01*
X135024761Y-71084833D01*
X135072380Y-71227690D01*
X135072380Y-71465785D01*
X144851428Y-71370261D02*
X144803809Y-71322642D01*
X144756190Y-71227404D01*
X144851428Y-71036928D01*
X144803809Y-70941690D01*
X144756190Y-70894071D01*
X126500000Y-113954214D02*
X126452380Y-114049452D01*
X126452380Y-114192309D01*
X126500000Y-114335166D01*
X126595238Y-114430404D01*
X126690476Y-114478023D01*
X126880952Y-114525642D01*
X127023809Y-114525642D01*
X127214285Y-114478023D01*
X127309523Y-114430404D01*
X127404761Y-114335166D01*
X127452380Y-114192309D01*
X127452380Y-114097071D01*
X127404761Y-113954214D01*
X127357142Y-113906595D01*
X127023809Y-113906595D01*
X127023809Y-114097071D01*
X127452380Y-113478023D02*
X126452380Y-113478023D01*
X127452380Y-112906595D01*
X126452380Y-112906595D01*
X127452380Y-112430404D02*
X126452380Y-112430404D01*
X126452380Y-112192309D01*
X126500000Y-112049452D01*
X126595238Y-111954214D01*
X126690476Y-111906595D01*
X126880952Y-111858976D01*
X127023809Y-111858976D01*
X127214285Y-111906595D01*
X127309523Y-111954214D01*
X127404761Y-112049452D01*
X127452380Y-112192309D01*
X127452380Y-112430404D01*
X137612380Y-113620880D02*
X137136190Y-113954214D01*
X137612380Y-114192309D02*
X136612380Y-114192309D01*
X136612380Y-113811357D01*
X136660000Y-113716119D01*
X136707619Y-113668500D01*
X136802857Y-113620880D01*
X136945714Y-113620880D01*
X137040952Y-113668500D01*
X137088571Y-113716119D01*
X137136190Y-113811357D01*
X137136190Y-114192309D01*
X137088571Y-113192309D02*
X137088571Y-112858976D01*
X137612380Y-112716119D02*
X137612380Y-113192309D01*
X136612380Y-113192309D01*
X136612380Y-112716119D01*
X137088571Y-111954214D02*
X137088571Y-112287547D01*
X137612380Y-112287547D02*
X136612380Y-112287547D01*
X136612380Y-111811357D01*
X147391428Y-72386261D02*
X147343809Y-72338642D01*
X147296190Y-72243404D01*
X147391428Y-72052928D01*
X147343809Y-71957690D01*
X147296190Y-71910071D01*
X127801714Y-73592833D02*
X128468380Y-73592833D01*
X127420761Y-73830928D02*
X128135047Y-74069023D01*
X128135047Y-73449976D01*
X127563619Y-73116642D02*
X127516000Y-73069023D01*
X127468380Y-72973785D01*
X127468380Y-72735690D01*
X127516000Y-72640452D01*
X127563619Y-72592833D01*
X127658857Y-72545214D01*
X127754095Y-72545214D01*
X127896952Y-72592833D01*
X128468380Y-73164261D01*
X128468380Y-72545214D01*
X137612380Y-72989595D02*
X137612380Y-73561023D01*
X137612380Y-73275309D02*
X136612380Y-73275309D01*
X136755238Y-73370547D01*
X136850476Y-73465785D01*
X136898095Y-73561023D01*
X136612380Y-72656261D02*
X136612380Y-72037214D01*
X136993333Y-72370547D01*
X136993333Y-72227690D01*
X137040952Y-72132452D01*
X137088571Y-72084833D01*
X137183809Y-72037214D01*
X137421904Y-72037214D01*
X137517142Y-72084833D01*
X137564761Y-72132452D01*
X137612380Y-72227690D01*
X137612380Y-72513404D01*
X137564761Y-72608642D01*
X137517142Y-72656261D01*
X122436000Y-82712214D02*
X122388380Y-82807452D01*
X122388380Y-82950309D01*
X122436000Y-83093166D01*
X122531238Y-83188404D01*
X122626476Y-83236023D01*
X122816952Y-83283642D01*
X122959809Y-83283642D01*
X123150285Y-83236023D01*
X123245523Y-83188404D01*
X123340761Y-83093166D01*
X123388380Y-82950309D01*
X123388380Y-82855071D01*
X123340761Y-82712214D01*
X123293142Y-82664595D01*
X122959809Y-82664595D01*
X122959809Y-82855071D01*
X123388380Y-82236023D02*
X122388380Y-82236023D01*
X123388380Y-81664595D01*
X122388380Y-81664595D01*
X123388380Y-81188404D02*
X122388380Y-81188404D01*
X122388380Y-80950309D01*
X122436000Y-80807452D01*
X122531238Y-80712214D01*
X122626476Y-80664595D01*
X122816952Y-80616976D01*
X122959809Y-80616976D01*
X123150285Y-80664595D01*
X123245523Y-80712214D01*
X123340761Y-80807452D01*
X123388380Y-80950309D01*
X123388380Y-81188404D01*
X123388380Y-73449976D02*
X122912190Y-73783309D01*
X123388380Y-74021404D02*
X122388380Y-74021404D01*
X122388380Y-73640452D01*
X122436000Y-73545214D01*
X122483619Y-73497595D01*
X122578857Y-73449976D01*
X122721714Y-73449976D01*
X122816952Y-73497595D01*
X122864571Y-73545214D01*
X122912190Y-73640452D01*
X122912190Y-74021404D01*
X122388380Y-73116642D02*
X123388380Y-72449976D01*
X122388380Y-72449976D02*
X123388380Y-73116642D01*
X127801714Y-81664595D02*
X128468380Y-81664595D01*
X127420761Y-81902690D02*
X128135047Y-82140785D01*
X128135047Y-81521738D01*
X128468380Y-80616976D02*
X128468380Y-81188404D01*
X128468380Y-80902690D02*
X127468380Y-80902690D01*
X127611238Y-80997928D01*
X127706476Y-81093166D01*
X127754095Y-81188404D01*
X159805714Y-73084833D02*
X160472380Y-73084833D01*
X159424761Y-73322928D02*
X160139047Y-73561023D01*
X160139047Y-72941976D01*
X151852380Y-73608642D02*
X151852380Y-72941976D01*
X152852380Y-73370547D01*
X141692380Y-114763738D02*
X141692380Y-114144690D01*
X142073333Y-114478023D01*
X142073333Y-114335166D01*
X142120952Y-114239928D01*
X142168571Y-114192309D01*
X142263809Y-114144690D01*
X142501904Y-114144690D01*
X142597142Y-114192309D01*
X142644761Y-114239928D01*
X142692380Y-114335166D01*
X142692380Y-114620880D01*
X142644761Y-114716119D01*
X142597142Y-114763738D01*
X142597142Y-113716119D02*
X142644761Y-113668500D01*
X142692380Y-113716119D01*
X142644761Y-113763738D01*
X142597142Y-113716119D01*
X142692380Y-113716119D01*
X141692380Y-113335166D02*
X141692380Y-112716119D01*
X142073333Y-113049452D01*
X142073333Y-112906595D01*
X142120952Y-112811357D01*
X142168571Y-112763738D01*
X142263809Y-112716119D01*
X142501904Y-112716119D01*
X142597142Y-112763738D01*
X142644761Y-112811357D01*
X142692380Y-112906595D01*
X142692380Y-113192309D01*
X142644761Y-113287547D01*
X142597142Y-113335166D01*
X141692380Y-112430404D02*
X142692380Y-112097071D01*
X141692380Y-111763738D01*
X132246666Y-73561023D02*
X132246666Y-73084833D01*
X132532380Y-73656261D02*
X131532380Y-73322928D01*
X132532380Y-72989595D01*
X132532380Y-72084833D02*
X132056190Y-72418166D01*
X132532380Y-72656261D02*
X131532380Y-72656261D01*
X131532380Y-72275309D01*
X131580000Y-72180071D01*
X131627619Y-72132452D01*
X131722857Y-72084833D01*
X131865714Y-72084833D01*
X131960952Y-72132452D01*
X132008571Y-72180071D01*
X132056190Y-72275309D01*
X132056190Y-72656261D01*
X132008571Y-71656261D02*
X132008571Y-71322928D01*
X132532380Y-71180071D02*
X132532380Y-71656261D01*
X131532380Y-71656261D01*
X131532380Y-71180071D01*
X132008571Y-70418166D02*
X132008571Y-70751500D01*
X132532380Y-70751500D02*
X131532380Y-70751500D01*
X131532380Y-70275309D01*
X149740952Y-73370547D02*
X149693333Y-73465785D01*
X149645714Y-73513404D01*
X149550476Y-73561023D01*
X149502857Y-73561023D01*
X149407619Y-73513404D01*
X149360000Y-73465785D01*
X149312380Y-73370547D01*
X149312380Y-73180071D01*
X149360000Y-73084833D01*
X149407619Y-73037214D01*
X149502857Y-72989595D01*
X149550476Y-72989595D01*
X149645714Y-73037214D01*
X149693333Y-73084833D01*
X149740952Y-73180071D01*
X149740952Y-73370547D01*
X149788571Y-73465785D01*
X149836190Y-73513404D01*
X149931428Y-73561023D01*
X150121904Y-73561023D01*
X150217142Y-73513404D01*
X150264761Y-73465785D01*
X150312380Y-73370547D01*
X150312380Y-73180071D01*
X150264761Y-73084833D01*
X150217142Y-73037214D01*
X150121904Y-72989595D01*
X149931428Y-72989595D01*
X149836190Y-73037214D01*
X149788571Y-73084833D01*
X149740952Y-73180071D01*
X157646666Y-113287547D02*
X157646666Y-112811357D01*
X157932380Y-113382785D02*
X156932380Y-113049452D01*
X157932380Y-112716119D01*
X157932380Y-111858976D02*
X157932380Y-112430404D01*
X157932380Y-112144690D02*
X156932380Y-112144690D01*
X157075238Y-112239928D01*
X157170476Y-112335166D01*
X157218095Y-112430404D01*
X168092380Y-72989595D02*
X168092380Y-73561023D01*
X168092380Y-73275309D02*
X167092380Y-73275309D01*
X167235238Y-73370547D01*
X167330476Y-73465785D01*
X167378095Y-73561023D01*
X168425714Y-72322928D02*
X166997142Y-72322928D01*
X167092380Y-71751500D02*
X167092380Y-71180071D01*
X168092380Y-71465785D02*
X167092380Y-71465785D01*
X167092380Y-70941976D02*
X168092380Y-70275309D01*
X167092380Y-70275309D02*
X168092380Y-70941976D01*
X155106666Y-113287547D02*
X155106666Y-112811357D01*
X155392380Y-113382785D02*
X154392380Y-113049452D01*
X155392380Y-112716119D01*
X154392380Y-112192309D02*
X154392380Y-112097071D01*
X154440000Y-112001833D01*
X154487619Y-111954214D01*
X154582857Y-111906595D01*
X154773333Y-111858976D01*
X155011428Y-111858976D01*
X155201904Y-111906595D01*
X155297142Y-111954214D01*
X155344761Y-112001833D01*
X155392380Y-112097071D01*
X155392380Y-112192309D01*
X155344761Y-112287547D01*
X155297142Y-112335166D01*
X155201904Y-112382785D01*
X155011428Y-112430404D01*
X154773333Y-112430404D01*
X154582857Y-112382785D01*
X154487619Y-112335166D01*
X154440000Y-112287547D01*
X154392380Y-112192309D01*
X124928380Y-74164261D02*
X124928380Y-73592833D01*
X125928380Y-73878547D02*
X124928380Y-73878547D01*
X124928380Y-73354738D02*
X125928380Y-72688071D01*
X124928380Y-72688071D02*
X125928380Y-73354738D01*
X151852380Y-113954214D02*
X152852380Y-113620880D01*
X151852380Y-113287547D01*
X152852380Y-112954214D02*
X151852380Y-112954214D01*
X152852380Y-112478023D02*
X151852380Y-112478023D01*
X152852380Y-111906595D01*
X151852380Y-111906595D01*
X146820000Y-113954214D02*
X146772380Y-114049452D01*
X146772380Y-114192309D01*
X146820000Y-114335166D01*
X146915238Y-114430404D01*
X147010476Y-114478023D01*
X147200952Y-114525642D01*
X147343809Y-114525642D01*
X147534285Y-114478023D01*
X147629523Y-114430404D01*
X147724761Y-114335166D01*
X147772380Y-114192309D01*
X147772380Y-114097071D01*
X147724761Y-113954214D01*
X147677142Y-113906595D01*
X147343809Y-113906595D01*
X147343809Y-114097071D01*
X147772380Y-113478023D02*
X146772380Y-113478023D01*
X147772380Y-112906595D01*
X146772380Y-112906595D01*
X147772380Y-112430404D02*
X146772380Y-112430404D01*
X146772380Y-112192309D01*
X146820000Y-112049452D01*
X146915238Y-111954214D01*
X147010476Y-111906595D01*
X147200952Y-111858976D01*
X147343809Y-111858976D01*
X147534285Y-111906595D01*
X147629523Y-111954214D01*
X147724761Y-112049452D01*
X147772380Y-112192309D01*
X147772380Y-112430404D01*
X157551428Y-72386261D02*
X157503809Y-72338642D01*
X157456190Y-72243404D01*
X157551428Y-72052928D01*
X157503809Y-71957690D01*
X157456190Y-71910071D01*
X164647619Y-73561023D02*
X164600000Y-73513404D01*
X164552380Y-73418166D01*
X164552380Y-73180071D01*
X164600000Y-73084833D01*
X164647619Y-73037214D01*
X164742857Y-72989595D01*
X164838095Y-72989595D01*
X164980952Y-73037214D01*
X165552380Y-73608642D01*
X165552380Y-72989595D01*
X147772380Y-73465785D02*
X147772380Y-73275309D01*
X147724761Y-73180071D01*
X147677142Y-73132452D01*
X147534285Y-73037214D01*
X147343809Y-72989595D01*
X146962857Y-72989595D01*
X146867619Y-73037214D01*
X146820000Y-73084833D01*
X146772380Y-73180071D01*
X146772380Y-73370547D01*
X146820000Y-73465785D01*
X146867619Y-73513404D01*
X146962857Y-73561023D01*
X147200952Y-73561023D01*
X147296190Y-73513404D01*
X147343809Y-73465785D01*
X147391428Y-73370547D01*
X147391428Y-73180071D01*
X147343809Y-73084833D01*
X147296190Y-73037214D01*
X147200952Y-72989595D01*
X142311428Y-71370261D02*
X142263809Y-71322642D01*
X142216190Y-71227404D01*
X142311428Y-71036928D01*
X142263809Y-70941690D01*
X142216190Y-70894071D01*
X162631428Y-72386261D02*
X162583809Y-72338642D01*
X162536190Y-72243404D01*
X162631428Y-72052928D01*
X162583809Y-71957690D01*
X162536190Y-71910071D01*
X144232380Y-112763738D02*
X144232380Y-113239928D01*
X144708571Y-113287547D01*
X144660952Y-113239928D01*
X144613333Y-113144690D01*
X144613333Y-112906595D01*
X144660952Y-112811357D01*
X144708571Y-112763738D01*
X144803809Y-112716119D01*
X145041904Y-112716119D01*
X145137142Y-112763738D01*
X145184761Y-112811357D01*
X145232380Y-112906595D01*
X145232380Y-113144690D01*
X145184761Y-113239928D01*
X145137142Y-113287547D01*
X144232380Y-112430404D02*
X145232380Y-112097071D01*
X144232380Y-111763738D01*
X142692380Y-72989595D02*
X142692380Y-73561023D01*
X142692380Y-73275309D02*
X141692380Y-73275309D01*
X141835238Y-73370547D01*
X141930476Y-73465785D01*
X141978095Y-73561023D01*
X142692380Y-72037214D02*
X142692380Y-72608642D01*
X142692380Y-72322928D02*
X141692380Y-72322928D01*
X141835238Y-72418166D01*
X141930476Y-72513404D01*
X141978095Y-72608642D01*
X140152380Y-72989595D02*
X140152380Y-73561023D01*
X140152380Y-73275309D02*
X139152380Y-73275309D01*
X139295238Y-73370547D01*
X139390476Y-73465785D01*
X139438095Y-73561023D01*
X139247619Y-72608642D02*
X139200000Y-72561023D01*
X139152380Y-72465785D01*
X139152380Y-72227690D01*
X139200000Y-72132452D01*
X139247619Y-72084833D01*
X139342857Y-72037214D01*
X139438095Y-72037214D01*
X139580952Y-72084833D01*
X140152380Y-72656261D01*
X140152380Y-72037214D01*
X140152380Y-113716119D02*
X139676190Y-114049452D01*
X140152380Y-114287547D02*
X139152380Y-114287547D01*
X139152380Y-113906595D01*
X139200000Y-113811357D01*
X139247619Y-113763738D01*
X139342857Y-113716119D01*
X139485714Y-113716119D01*
X139580952Y-113763738D01*
X139628571Y-113811357D01*
X139676190Y-113906595D01*
X139676190Y-114287547D01*
X139628571Y-113287547D02*
X139628571Y-112954214D01*
X140152380Y-112811357D02*
X140152380Y-113287547D01*
X139152380Y-113287547D01*
X139152380Y-112811357D01*
X140104761Y-112430404D02*
X140152380Y-112287547D01*
X140152380Y-112049452D01*
X140104761Y-111954214D01*
X140057142Y-111906595D01*
X139961904Y-111858976D01*
X139866666Y-111858976D01*
X139771428Y-111906595D01*
X139723809Y-111954214D01*
X139676190Y-112049452D01*
X139628571Y-112239928D01*
X139580952Y-112335166D01*
X139533333Y-112382785D01*
X139438095Y-112430404D01*
X139342857Y-112430404D01*
X139247619Y-112382785D01*
X139200000Y-112335166D01*
X139152380Y-112239928D01*
X139152380Y-112001833D01*
X139200000Y-111858976D01*
X165266666Y-113287547D02*
X165266666Y-112811357D01*
X165552380Y-113382785D02*
X164552380Y-113049452D01*
X165552380Y-112716119D01*
X164885714Y-111954214D02*
X165552380Y-111954214D01*
X164504761Y-112192309D02*
X165219047Y-112430404D01*
X165219047Y-111811357D01*
X123912380Y-114001833D02*
X123912380Y-113811357D01*
X123960000Y-113716119D01*
X124055238Y-113620880D01*
X124245714Y-113573261D01*
X124579047Y-113573261D01*
X124769523Y-113620880D01*
X124864761Y-113716119D01*
X124912380Y-113811357D01*
X124912380Y-114001833D01*
X124864761Y-114097071D01*
X124769523Y-114192309D01*
X124579047Y-114239928D01*
X124245714Y-114239928D01*
X124055238Y-114192309D01*
X123960000Y-114097071D01*
X123912380Y-114001833D01*
X124388571Y-112811357D02*
X124388571Y-113144690D01*
X124912380Y-113144690D02*
X123912380Y-113144690D01*
X123912380Y-112668500D01*
X124388571Y-111954214D02*
X124388571Y-112287547D01*
X124912380Y-112287547D02*
X123912380Y-112287547D01*
X123912380Y-111811357D01*
X169632380Y-73322928D02*
X169632380Y-73227690D01*
X169680000Y-73132452D01*
X169727619Y-73084833D01*
X169822857Y-73037214D01*
X170013333Y-72989595D01*
X170251428Y-72989595D01*
X170441904Y-73037214D01*
X170537142Y-73084833D01*
X170584761Y-73132452D01*
X170632380Y-73227690D01*
X170632380Y-73322928D01*
X170584761Y-73418166D01*
X170537142Y-73465785D01*
X170441904Y-73513404D01*
X170251428Y-73561023D01*
X170013333Y-73561023D01*
X169822857Y-73513404D01*
X169727619Y-73465785D01*
X169680000Y-73418166D01*
X169632380Y-73322928D01*
X170965714Y-72322928D02*
X169537142Y-72322928D01*
X170632380Y-71037214D02*
X170156190Y-71370547D01*
X170632380Y-71608642D02*
X169632380Y-71608642D01*
X169632380Y-71227690D01*
X169680000Y-71132452D01*
X169727619Y-71084833D01*
X169822857Y-71037214D01*
X169965714Y-71037214D01*
X170060952Y-71084833D01*
X170108571Y-71132452D01*
X170156190Y-71227690D01*
X170156190Y-71608642D01*
X169632380Y-70703880D02*
X170632380Y-70037214D01*
X169632380Y-70037214D02*
X170632380Y-70703880D01*
X154392380Y-73084833D02*
X154392380Y-73275309D01*
X154440000Y-73370547D01*
X154487619Y-73418166D01*
X154630476Y-73513404D01*
X154820952Y-73561023D01*
X155201904Y-73561023D01*
X155297142Y-73513404D01*
X155344761Y-73465785D01*
X155392380Y-73370547D01*
X155392380Y-73180071D01*
X155344761Y-73084833D01*
X155297142Y-73037214D01*
X155201904Y-72989595D01*
X154963809Y-72989595D01*
X154868571Y-73037214D01*
X154820952Y-73084833D01*
X154773333Y-73180071D01*
X154773333Y-73370547D01*
X154820952Y-73465785D01*
X154868571Y-73513404D01*
X154963809Y-73561023D01*
X149360000Y-113954214D02*
X149312380Y-114049452D01*
X149312380Y-114192309D01*
X149360000Y-114335166D01*
X149455238Y-114430404D01*
X149550476Y-114478023D01*
X149740952Y-114525642D01*
X149883809Y-114525642D01*
X150074285Y-114478023D01*
X150169523Y-114430404D01*
X150264761Y-114335166D01*
X150312380Y-114192309D01*
X150312380Y-114097071D01*
X150264761Y-113954214D01*
X150217142Y-113906595D01*
X149883809Y-113906595D01*
X149883809Y-114097071D01*
X150312380Y-113478023D02*
X149312380Y-113478023D01*
X150312380Y-112906595D01*
X149312380Y-112906595D01*
X150312380Y-112430404D02*
X149312380Y-112430404D01*
X149312380Y-112192309D01*
X149360000Y-112049452D01*
X149455238Y-111954214D01*
X149550476Y-111906595D01*
X149740952Y-111858976D01*
X149883809Y-111858976D01*
X150074285Y-111906595D01*
X150169523Y-111954214D01*
X150264761Y-112049452D01*
X150312380Y-112192309D01*
X150312380Y-112430404D01*
X170124380Y-86918976D02*
X169124380Y-86918976D01*
X170029142Y-85871357D02*
X170076761Y-85918976D01*
X170124380Y-86061833D01*
X170124380Y-86157071D01*
X170076761Y-86299928D01*
X169981523Y-86395166D01*
X169886285Y-86442785D01*
X169695809Y-86490404D01*
X169552952Y-86490404D01*
X169362476Y-86442785D01*
X169267238Y-86395166D01*
X169172000Y-86299928D01*
X169124380Y-86157071D01*
X169124380Y-86061833D01*
X169172000Y-85918976D01*
X169219619Y-85871357D01*
X170076761Y-85490404D02*
X170124380Y-85347547D01*
X170124380Y-85109452D01*
X170076761Y-85014214D01*
X170029142Y-84966595D01*
X169933904Y-84918976D01*
X169838666Y-84918976D01*
X169743428Y-84966595D01*
X169695809Y-85014214D01*
X169648190Y-85109452D01*
X169600571Y-85299928D01*
X169552952Y-85395166D01*
X169505333Y-85442785D01*
X169410095Y-85490404D01*
X169314857Y-85490404D01*
X169219619Y-85442785D01*
X169172000Y-85395166D01*
X169124380Y-85299928D01*
X169124380Y-85061833D01*
X169172000Y-84918976D01*
X170124380Y-84490404D02*
X169124380Y-84490404D01*
X169124380Y-84109452D01*
X169172000Y-84014214D01*
X169219619Y-83966595D01*
X169314857Y-83918976D01*
X169457714Y-83918976D01*
X169552952Y-83966595D01*
X169600571Y-84014214D01*
X169648190Y-84109452D01*
X169648190Y-84490404D01*
X128992380Y-115192309D02*
X129992380Y-114858976D01*
X128992380Y-114525642D01*
X129992380Y-113620880D02*
X129516190Y-113954214D01*
X129992380Y-114192309D02*
X128992380Y-114192309D01*
X128992380Y-113811357D01*
X129040000Y-113716119D01*
X129087619Y-113668500D01*
X129182857Y-113620880D01*
X129325714Y-113620880D01*
X129420952Y-113668500D01*
X129468571Y-113716119D01*
X129516190Y-113811357D01*
X129516190Y-114192309D01*
X128992380Y-113335166D02*
X128992380Y-112763738D01*
X129992380Y-113049452D02*
X128992380Y-113049452D01*
X129897142Y-111858976D02*
X129944761Y-111906595D01*
X129992380Y-112049452D01*
X129992380Y-112144690D01*
X129944761Y-112287547D01*
X129849523Y-112382785D01*
X129754285Y-112430404D01*
X129563809Y-112478023D01*
X129420952Y-112478023D01*
X129230476Y-112430404D01*
X129135238Y-112382785D01*
X129040000Y-112287547D01*
X128992380Y-112144690D01*
X128992380Y-112049452D01*
X129040000Y-111906595D01*
X129087619Y-111858976D01*
X162726666Y-113287547D02*
X162726666Y-112811357D01*
X163012380Y-113382785D02*
X162012380Y-113049452D01*
X163012380Y-112716119D01*
X162012380Y-112478023D02*
X162012380Y-111858976D01*
X162393333Y-112192309D01*
X162393333Y-112049452D01*
X162440952Y-111954214D01*
X162488571Y-111906595D01*
X162583809Y-111858976D01*
X162821904Y-111858976D01*
X162917142Y-111906595D01*
X162964761Y-111954214D01*
X163012380Y-112049452D01*
X163012380Y-112335166D01*
X162964761Y-112430404D01*
X162917142Y-112478023D01*
X109624761Y-71040476D02*
X109672380Y-70897619D01*
X109672380Y-70659523D01*
X109624761Y-70564285D01*
X109577142Y-70516666D01*
X109481904Y-70469047D01*
X109386666Y-70469047D01*
X109291428Y-70516666D01*
X109243809Y-70564285D01*
X109196190Y-70659523D01*
X109148571Y-70850000D01*
X109100952Y-70945238D01*
X109053333Y-70992857D01*
X108958095Y-71040476D01*
X108862857Y-71040476D01*
X108767619Y-70992857D01*
X108720000Y-70945238D01*
X108672380Y-70850000D01*
X108672380Y-70611904D01*
X108720000Y-70469047D01*
X109577142Y-69469047D02*
X109624761Y-69516666D01*
X109672380Y-69659523D01*
X109672380Y-69754761D01*
X109624761Y-69897619D01*
X109529523Y-69992857D01*
X109434285Y-70040476D01*
X109243809Y-70088095D01*
X109100952Y-70088095D01*
X108910476Y-70040476D01*
X108815238Y-69992857D01*
X108720000Y-69897619D01*
X108672380Y-69754761D01*
X108672380Y-69659523D01*
X108720000Y-69516666D01*
X108767619Y-69469047D01*
X109672380Y-68564285D02*
X109672380Y-69040476D01*
X108672380Y-69040476D01*
X124928380Y-80950309D02*
X124928380Y-80855071D01*
X124976000Y-80759833D01*
X125023619Y-80712214D01*
X125118857Y-80664595D01*
X125309333Y-80616976D01*
X125547428Y-80616976D01*
X125737904Y-80664595D01*
X125833142Y-80712214D01*
X125880761Y-80759833D01*
X125928380Y-80855071D01*
X125928380Y-80950309D01*
X125880761Y-81045547D01*
X125833142Y-81093166D01*
X125737904Y-81140785D01*
X125547428Y-81188404D01*
X125309333Y-81188404D01*
X125118857Y-81140785D01*
X125023619Y-81093166D01*
X124976000Y-81045547D01*
X124928380Y-80950309D01*
X167806666Y-113287547D02*
X167806666Y-112811357D01*
X168092380Y-113382785D02*
X167092380Y-113049452D01*
X168092380Y-112716119D01*
X167092380Y-111906595D02*
X167092380Y-112382785D01*
X167568571Y-112430404D01*
X167520952Y-112382785D01*
X167473333Y-112287547D01*
X167473333Y-112049452D01*
X167520952Y-111954214D01*
X167568571Y-111906595D01*
X167663809Y-111858976D01*
X167901904Y-111858976D01*
X167997142Y-111906595D01*
X168044761Y-111954214D01*
X168092380Y-112049452D01*
X168092380Y-112287547D01*
X168044761Y-112382785D01*
X167997142Y-112430404D01*
X155011428Y-72386261D02*
X154963809Y-72338642D01*
X154916190Y-72243404D01*
X155011428Y-72052928D01*
X154963809Y-71957690D01*
X154916190Y-71910071D01*
D12*
%TO.C,U1*%
X130884990Y-118170010D02*
X130884990Y-115510010D01*
X125744990Y-118170010D02*
X130884990Y-118170010D01*
X125744990Y-115510010D02*
X130884990Y-115510010D01*
X125744990Y-118170010D02*
X125744990Y-115510010D01*
X123144990Y-118170010D02*
X123144990Y-116840010D01*
X124474990Y-118170010D02*
X123144990Y-118170010D01*
%TO.C,U5*%
X168971990Y-95325010D02*
X174171990Y-95325010D01*
X171571990Y-90185010D02*
X171571990Y-87585010D01*
X168971990Y-90185010D02*
X171571990Y-90185010D01*
X174171990Y-87585010D02*
X174171990Y-95325010D01*
X168971990Y-88915010D02*
X168971990Y-87585010D01*
X168971990Y-90185010D02*
X168971990Y-95325010D01*
X171571990Y-87585010D02*
X174171990Y-87585010D01*
X168971990Y-87585010D02*
X170301990Y-87585010D01*
%TO.C,U7*%
X153669990Y-67250010D02*
X171509990Y-67250010D01*
X153669990Y-69910010D02*
X166369990Y-69910010D01*
X151069990Y-69910010D02*
X151069990Y-68580010D01*
X171509990Y-69910010D02*
X171509990Y-67250010D01*
X152399990Y-69910010D02*
X151069990Y-69910010D01*
X153669990Y-69910010D02*
X153669990Y-67250010D01*
%TO.C,U6*%
X149666000Y-69910000D02*
X149666000Y-67250000D01*
X126746000Y-67250000D02*
X149666000Y-67250000D01*
X125476000Y-69910000D02*
X124146000Y-69910000D01*
X124146000Y-69910000D02*
X124146000Y-68580000D01*
X126746000Y-69910000D02*
X126746000Y-67250000D01*
X126746000Y-69910000D02*
X149666000Y-69910000D01*
%TO.C,U3*%
X158750000Y-118170000D02*
X171510000Y-118170000D01*
X171510000Y-118170000D02*
X171510000Y-115510000D01*
X158750000Y-118170000D02*
X158750000Y-115510000D01*
X157480000Y-118170000D02*
X156150000Y-118170000D01*
X158750000Y-115510000D02*
X171510000Y-115510000D01*
X156150000Y-118170000D02*
X156150000Y-116840000D01*
%TO.C,U2*%
X153730000Y-118170000D02*
X153730000Y-115510000D01*
X134620000Y-118170000D02*
X133290000Y-118170000D01*
X133290000Y-118170000D02*
X133290000Y-116840000D01*
X135890000Y-118170000D02*
X135890000Y-115510000D01*
X135890000Y-115510000D02*
X153730000Y-115510000D01*
X135890000Y-118170000D02*
X153730000Y-118170000D01*
%TO.C,U4*%
X126746000Y-74819200D02*
X126746000Y-77419200D01*
X126746000Y-74819200D02*
X121606000Y-74819200D01*
X121606000Y-74819200D02*
X121606000Y-80019200D01*
X129346000Y-80019200D02*
X121606000Y-80019200D01*
X129346000Y-77419200D02*
X129346000Y-80019200D01*
X129346000Y-74819200D02*
X129346000Y-76149200D01*
X126746000Y-77419200D02*
X129346000Y-77419200D01*
X128016000Y-74819200D02*
X129346000Y-74819200D01*
%TD*%
M02*
